<svg width="24" height="24" viewBox="0 0 24 24" fill="none" xmlns="http://www.w3.org/2000/svg">
    <path
        d="M5 2C3.355 2 2 3.355 2 5V19C2 20.645 3.355 22 5 22H19C20.645 22 22 20.645 22 19V5C22 3.355 20.645 2 19 2H5ZM5 4H19C19.571 4 20 4.429 20 5V19C20 19.571 19.571 20 19 20H5C4.429 20 4 19.571 4 19V5C4 4.429 4.429 4 5 4ZM11.984 6.986C11.438 6.995 11 7.439 11 7.986C11 7.991 11 7.996 11 8V7.999V10.999H8C7.996 10.999 7.991 10.999 7.986 10.999C7.434 10.999 6.986 11.447 6.986 11.999C6.986 12.551 7.434 12.999 7.986 12.999C7.991 12.999 7.996 12.999 8.001 12.999H11V15.999C11 16.003 11 16.008 11 16.013C11 16.565 11.448 17.013 12 17.013C12.552 17.013 13 16.565 13 16.013C13 16.008 13 16.003 13 15.998V15.999V12.999H16C16.004 12.999 16.009 12.999 16.014 12.999C16.566 12.999 17.014 12.551 17.014 11.999C17.014 11.447 16.566 10.999 16.014 10.999C16.009 10.999 16.004 10.999 15.999 10.999H13V7.999C13 7.995 13 7.99 13 7.985C13 7.433 12.552 6.985 12 6.985C11.995 6.985 11.989 6.985 11.984 6.985H11.985L11.984 6.986Z"
        fill="#007FFF" />
</svg>
    