<svg width="153" height="172" viewBox="0 0 153 172" fill="none" xmlns="http://www.w3.org/2000/svg">
    <path
        d="M0 87C1.55346e-06 104.77 7.05891 121.811 19.6238 134.376C32.1888 146.941 49.2305 154 67 154V87L0 87Z"
        fill="#F5F3FF" />
    <path
        d="M67.0001 169C77.8998 169 88.6928 166.853 98.7628 162.682C108.833 158.511 117.983 152.397 125.69 144.69C133.397 136.983 139.511 127.833 143.682 117.763C147.853 107.693 150 96.8997 150 86C150 75.1003 147.853 64.3073 143.682 54.2372C139.511 44.1672 133.397 35.0174 125.69 27.3101C117.983 19.6028 108.833 13.4891 98.7627 9.31798C88.6927 5.14684 77.8997 2.99999 67 3"
        stroke="#DDD6FE" stroke-width="5" />
</svg>
    