<svg width="150" height="40" viewBox="0 0 150 40" fill="none" xmlns="http://www.w3.org/2000/svg">
    <g opacity="0.5">
        <rect x="0.5" y="0.5" width="149" height="39" rx="3.5" stroke="#C6CDD2" />
        <path
            d="M28 8C21.3844 8 16 13.3844 16 20C16 26.6156 21.3844 32 28 32C34.6156 32 40 26.6156 40 20C40 13.3844 34.6156 8 28 8ZM28 10C33.5347 10 38 14.4653 38 20C38 25.5347 33.5347 30 28 30C22.4653 30 18 25.5347 18 20C18 14.4653 22.4653 10 28 10ZM28.1816 15C27.1076 15 26.3071 15.3492 25.7812 16.0488C25.2599 16.7485 25 17.7979 25 19.1973V20.8828C25.0134 22.2419 25.2861 23.2696 25.8164 23.9648C26.3512 24.6555 27.1436 25 28.1953 25C29.2648 25 30.0606 24.646 30.582 23.9375C31.1078 23.2245 31.3711 22.1688 31.3711 20.7695V19.084C31.3578 17.7248 31.0863 16.7053 30.5605 16.0234C30.0391 15.3416 29.2467 15 28.1816 15ZM28.1816 16.3027C28.7253 16.3027 29.1215 16.5175 29.3711 16.9453C29.6206 17.3687 29.7461 18.0377 29.7461 18.9512V21.1504C29.7327 22.0283 29.6012 22.6735 29.3516 23.0879C29.102 23.4979 28.7167 23.7031 28.1953 23.7031C27.6516 23.7031 27.252 23.4808 26.998 23.0352C26.744 22.5895 26.6172 21.9111 26.6172 21.002V18.7969C26.6306 17.9413 26.7622 17.3132 27.0117 16.9121C27.2613 16.5066 27.6513 16.3027 28.1816 16.3027Z"
            fill="#8A94A6" />
        <path
            d="M58.8291 20.5566H54.7412V23.6191H59.5195V25H53.0117V15.0469H59.4717V16.4414H54.7412V19.1895H58.8291V20.5566ZM65.6131 22.9902C65.6131 22.694 65.49 22.4684 65.2439 22.3135C65.0024 22.1585 64.5991 22.0218 64.034 21.9033C63.4689 21.7848 62.9972 21.6344 62.6189 21.4521C61.7895 21.0511 61.3748 20.4701 61.3748 19.709C61.3748 19.071 61.6437 18.5378 62.1814 18.1094C62.7192 17.681 63.4028 17.4668 64.2322 17.4668C65.1163 17.4668 65.8296 17.6855 66.3719 18.123C66.9187 18.5605 67.1922 19.1279 67.1922 19.8252H65.5311C65.5311 19.5062 65.4126 19.2419 65.1756 19.0322C64.9386 18.818 64.6242 18.7109 64.2322 18.7109C63.8676 18.7109 63.5691 18.7952 63.3367 18.9639C63.1089 19.1325 62.9949 19.3581 62.9949 19.6406C62.9949 19.8958 63.102 20.0941 63.3162 20.2354C63.5304 20.3766 63.9633 20.5202 64.615 20.666C65.2667 20.8073 65.7771 20.9782 66.1463 21.1787C66.52 21.3747 66.7957 21.6117 66.9734 21.8896C67.1557 22.1676 67.2469 22.5049 67.2469 22.9014C67.2469 23.5667 66.9712 24.1068 66.4197 24.5215C65.8683 24.9316 65.146 25.1367 64.2527 25.1367C63.6466 25.1367 63.1066 25.0273 62.6326 24.8086C62.1587 24.5898 61.7895 24.2891 61.5252 23.9062C61.2609 23.5234 61.1287 23.111 61.1287 22.6689H62.742C62.7648 23.0609 62.9129 23.3639 63.1863 23.5781C63.4598 23.7878 63.8221 23.8926 64.2732 23.8926C64.7107 23.8926 65.0434 23.8105 65.2713 23.6465C65.4992 23.4779 65.6131 23.2591 65.6131 22.9902ZM71.4811 15.8057V17.6035H72.7867V18.834H71.4811V22.9629C71.4811 23.2454 71.5357 23.4505 71.6451 23.5781C71.759 23.7012 71.9596 23.7627 72.2467 23.7627C72.4381 23.7627 72.6318 23.7399 72.8277 23.6943V24.9795C72.4495 25.0843 72.0849 25.1367 71.734 25.1367C70.4579 25.1367 69.8199 24.4326 69.8199 23.0244V18.834H68.6031V17.6035H69.8199V15.8057H71.4811ZM76.5287 25H74.8676V17.6035H76.5287V25ZM74.765 15.6826C74.765 15.4274 74.8448 15.2155 75.0043 15.0469C75.1684 14.8783 75.4008 14.7939 75.7016 14.7939C76.0023 14.7939 76.2348 14.8783 76.3988 15.0469C76.5629 15.2155 76.6449 15.4274 76.6449 15.6826C76.6449 15.9333 76.5629 16.1429 76.3988 16.3115C76.2348 16.4756 76.0023 16.5576 75.7016 16.5576C75.4008 16.5576 75.1684 16.4756 75.0043 16.3115C74.8448 16.1429 74.765 15.9333 74.765 15.6826ZM80.6057 17.6035L80.6535 18.376C81.173 17.7699 81.884 17.4668 82.7863 17.4668C83.7753 17.4668 84.452 17.8451 84.8166 18.6016C85.3544 17.8451 86.1109 17.4668 87.0861 17.4668C87.9019 17.4668 88.508 17.6924 88.9045 18.1436C89.3055 18.5947 89.5106 19.2601 89.5197 20.1396V25H87.8586V20.1875C87.8586 19.7181 87.7561 19.374 87.551 19.1553C87.3459 18.9365 87.0064 18.8271 86.5324 18.8271C86.1542 18.8271 85.8443 18.9297 85.6027 19.1348C85.3658 19.3353 85.1994 19.5996 85.1037 19.9277L85.1105 25H83.4494V20.1328C83.4266 19.2624 82.9823 18.8271 82.1164 18.8271C81.451 18.8271 80.9794 19.0983 80.7014 19.6406V25H79.0402V17.6035H80.6057ZM96.3447 25C96.2718 24.8587 96.208 24.6286 96.1533 24.3096C95.6247 24.861 94.9775 25.1367 94.2119 25.1367C93.4691 25.1367 92.863 24.9248 92.3936 24.501C91.9242 24.0771 91.6895 23.5531 91.6895 22.9287C91.6895 22.1403 91.9811 21.5365 92.5645 21.1172C93.1523 20.6934 93.9909 20.4814 95.0801 20.4814H96.0986V19.9961C96.0986 19.6133 95.9915 19.3079 95.7773 19.0801C95.5632 18.8477 95.2373 18.7314 94.7998 18.7314C94.4215 18.7314 94.1117 18.8271 93.8701 19.0186C93.6286 19.2054 93.5078 19.4447 93.5078 19.7363H91.8467C91.8467 19.3307 91.9811 18.9525 92.25 18.6016C92.5189 18.2461 92.8835 17.9681 93.3438 17.7676C93.8086 17.5671 94.3258 17.4668 94.8955 17.4668C95.7614 17.4668 96.4518 17.6855 96.9668 18.123C97.4818 18.556 97.7461 19.1667 97.7598 19.9551V23.291C97.7598 23.9564 97.8532 24.4873 98.04 24.8838V25H96.3447ZM94.5195 23.8037C94.8477 23.8037 95.1553 23.724 95.4424 23.5645C95.734 23.4049 95.9528 23.1908 96.0986 22.9219V21.5273H95.2031C94.5879 21.5273 94.1253 21.6344 93.8154 21.8486C93.5055 22.0628 93.3506 22.3659 93.3506 22.7578C93.3506 23.0768 93.4554 23.332 93.665 23.5234C93.8792 23.7103 94.1641 23.8037 94.5195 23.8037ZM102.281 15.8057V17.6035H103.587V18.834H102.281V22.9629C102.281 23.2454 102.336 23.4505 102.445 23.5781C102.559 23.7012 102.76 23.7627 103.047 23.7627C103.238 23.7627 103.432 23.7399 103.628 23.6943V24.9795C103.249 25.0843 102.885 25.1367 102.534 25.1367C101.258 25.1367 100.62 24.4326 100.62 23.0244V18.834H99.4031V17.6035H100.62V15.8057H102.281ZM107.329 25H105.668V17.6035H107.329V25ZM105.565 15.6826C105.565 15.4274 105.645 15.2155 105.804 15.0469C105.968 14.8783 106.201 14.7939 106.502 14.7939C106.802 14.7939 107.035 14.8783 107.199 15.0469C107.363 15.2155 107.445 15.4274 107.445 15.6826C107.445 15.9333 107.363 16.1429 107.199 16.3115C107.035 16.4756 106.802 16.5576 106.502 16.5576C106.201 16.5576 105.968 16.4756 105.804 16.3115C105.645 16.1429 105.565 15.9333 105.565 15.6826ZM109.533 21.2334C109.533 20.5088 109.676 19.8571 109.963 19.2783C110.25 18.695 110.654 18.2484 111.173 17.9385C111.693 17.624 112.29 17.4668 112.964 17.4668C113.962 17.4668 114.771 17.7881 115.391 18.4307C116.015 19.0732 116.353 19.9255 116.403 20.9873L116.41 21.377C116.41 22.1061 116.268 22.7578 115.986 23.332C115.708 23.9062 115.307 24.3506 114.783 24.665C114.263 24.9795 113.662 25.1367 112.978 25.1367C111.934 25.1367 111.098 24.7904 110.469 24.0977C109.845 23.4004 109.533 22.473 109.533 21.3154V21.2334ZM111.194 21.377C111.194 22.138 111.351 22.735 111.665 23.168C111.98 23.5964 112.417 23.8105 112.978 23.8105C113.538 23.8105 113.974 23.5918 114.284 23.1543C114.598 22.7168 114.755 22.0765 114.755 21.2334C114.755 20.486 114.593 19.8936 114.27 19.4561C113.951 19.0186 113.516 18.7998 112.964 18.7998C112.422 18.7998 111.991 19.0163 111.672 19.4492C111.353 19.8776 111.194 20.5202 111.194 21.377ZM120.056 17.6035L120.104 18.458C120.651 17.7972 121.368 17.4668 122.257 17.4668C123.797 17.4668 124.581 18.3486 124.609 20.1123V25H122.947V20.208C122.947 19.7386 122.845 19.3923 122.64 19.1689C122.439 18.9411 122.109 18.8271 121.649 18.8271C120.979 18.8271 120.48 19.1302 120.152 19.7363V25H118.49V17.6035H120.056Z"
            fill="#8A94A6" />
    </g>
</svg>
    