<svg width="139" height="40" viewBox="0 0 139 40" fill="none" xmlns="http://www.w3.org/2000/svg">
    <g opacity="0.5">
        <rect x="0.5" y="0.5" width="138" height="39" rx="3.5" stroke="#C6CDD2" />
        <path
            d="M27.9841 8.98599C27.4381 8.99499 27.0001 9.43899 27.0001 9.98599C27.0001 9.99099 27.0001 9.99599 27.0001 9.99999V9.99899V13.999C27.0001 14.003 27.0001 14.008 27.0001 14.013C27.0001 14.565 27.4481 15.013 28.0001 15.013C28.5521 15.013 29.0001 14.565 29.0001 14.013C29.0001 14.008 29.0001 14.003 29.0001 13.998V13.999V9.99899C29.0001 9.99499 29.0001 9.98999 29.0001 9.98499C29.0001 9.43299 28.5521 8.98499 28.0001 8.98499C27.9951 8.98499 27.9891 8.98499 27.9841 8.98499H27.9851L27.9841 8.98599ZM20.9201 11.92C20.3681 11.92 19.9201 12.368 19.9201 12.92C19.9201 13.201 20.0361 13.455 20.2221 13.636L23.0521 16.466C23.2341 16.656 23.4901 16.773 23.7731 16.773C24.3251 16.773 24.7731 16.325 24.7731 15.773C24.7731 15.49 24.6551 15.234 24.4661 15.052L21.6361 12.222C21.4541 12.035 21.2001 11.919 20.9191 11.919L20.9201 11.92ZM35.0511 11.92C34.7811 11.928 34.5391 12.043 34.3641 12.223L31.5341 15.053C31.3441 15.235 31.2271 15.491 31.2271 15.774C31.2271 16.326 31.6751 16.774 32.2271 16.774C32.5101 16.774 32.7661 16.656 32.9481 16.467L35.7781 13.637C35.9651 13.455 36.0811 13.201 36.0811 12.92C36.0811 12.368 35.6331 11.92 35.0811 11.92C35.0711 11.92 35.0601 11.92 35.0501 11.92H35.0521H35.0511ZM28.0001 18C26.8951 18 26.0001 18.895 26.0001 20C26.0001 21.105 26.8951 22 28.0001 22C29.1051 22 30.0001 21.105 30.0001 20C30.0001 18.895 29.1051 18 28.0001 18ZM18.0001 19C17.9961 19 17.9911 19 17.9861 19C17.4341 19 16.9861 19.448 16.9861 20C16.9861 20.552 17.4341 21 17.9861 21C17.9911 21 17.9961 21 18.0011 21H22.0001C22.0041 21 22.0091 21 22.0141 21C22.5661 21 23.0141 20.552 23.0141 20C23.0141 19.448 22.5661 19 22.0141 19C22.0091 19 22.0041 19 21.9991 19H18.0001ZM34.0001 19C33.9961 19 33.9911 19 33.9861 19C33.4341 19 32.9861 19.448 32.9861 20C32.9861 20.552 33.4341 21 33.9861 21C33.9911 21 33.9961 21 34.0011 21H38.0001C38.0041 21 38.0091 21 38.0141 21C38.5661 21 39.0141 20.552 39.0141 20C39.0141 19.448 38.5661 19 38.0141 19C38.0091 19 38.0041 19 37.9991 19H34.0001ZM23.7401 23.23C23.4701 23.238 23.2281 23.353 23.0531 23.533L20.2231 26.363C20.0331 26.545 19.9161 26.801 19.9161 27.084C19.9161 27.636 20.3641 28.084 20.9161 28.084C21.1991 28.084 21.4551 27.966 21.6371 27.777L24.4671 24.947C24.6541 24.765 24.7701 24.511 24.7701 24.23C24.7701 23.678 24.3221 23.23 23.7701 23.23C23.7601 23.23 23.7491 23.23 23.7391 23.23H23.7411H23.7401ZM32.2301 23.23C31.6781 23.23 31.2301 23.678 31.2301 24.23C31.2301 24.511 31.3461 24.765 31.5321 24.946L34.3621 27.776C34.5441 27.966 34.8001 28.083 35.0831 28.083C35.6351 28.083 36.0831 27.635 36.0831 27.083C36.0831 26.8 35.9651 26.544 35.7761 26.362L32.9461 23.532C32.7641 23.345 32.5101 23.229 32.2291 23.229L32.2301 23.23ZM27.9841 24.986C27.4381 24.995 27.0001 25.439 27.0001 25.986C27.0001 25.991 27.0001 25.996 27.0001 26V25.999V29.999C27.0001 30.003 27.0001 30.008 27.0001 30.013C27.0001 30.565 27.4481 31.013 28.0001 31.013C28.5521 31.013 29.0001 30.565 29.0001 30.013C29.0001 30.008 29.0001 30.003 29.0001 29.998V29.999V25.999C29.0001 25.995 29.0001 25.99 29.0001 25.985C29.0001 25.433 28.5521 24.985 28.0001 24.985C27.9951 24.985 27.9891 24.985 27.9841 24.985H27.9851L27.9841 24.986Z"
            fill="#8A94A6" />
        <path
            d="M60.9141 25H59.1914V20.5771H54.7412V25H53.0117V15.0469H54.7412V19.1895H59.1914V15.0469H60.9141V25ZM65.2713 25H63.6102V17.6035H65.2713V25ZM63.5076 15.6826C63.5076 15.4274 63.5874 15.2155 63.7469 15.0469C63.9109 14.8783 64.1434 14.7939 64.4441 14.7939C64.7449 14.7939 64.9773 14.8783 65.1414 15.0469C65.3055 15.2155 65.3875 15.4274 65.3875 15.6826C65.3875 15.9333 65.3055 16.1429 65.1414 16.3115C64.9773 16.4756 64.7449 16.5576 64.4441 16.5576C64.1434 16.5576 63.9109 16.4756 63.7469 16.3115C63.5874 16.1429 63.5076 15.9333 63.5076 15.6826ZM67.4957 21.2471C67.4957 20.0986 67.7646 19.1826 68.3023 18.499C68.8447 17.8109 69.5624 17.4668 70.4557 17.4668C71.2988 17.4668 71.9618 17.7607 72.4449 18.3486L72.5201 17.6035H74.0172V24.7744C74.0172 25.7451 73.7141 26.5107 73.108 27.0713C72.5064 27.6318 71.693 27.9121 70.6676 27.9121C70.1253 27.9121 69.5943 27.7982 69.0748 27.5703C68.5598 27.347 68.1679 27.0531 67.899 26.6885L68.6852 25.6904C69.1956 26.2965 69.8245 26.5996 70.5719 26.5996C71.1233 26.5996 71.5585 26.4492 71.8775 26.1484C72.1965 25.8522 72.3561 25.4147 72.3561 24.8359V24.3369C71.8775 24.8701 71.2395 25.1367 70.442 25.1367C69.5761 25.1367 68.8674 24.7926 68.316 24.1045C67.7691 23.4163 67.4957 22.4639 67.4957 21.2471ZM69.15 21.3906C69.15 22.1335 69.3004 22.7191 69.6012 23.1475C69.9065 23.5713 70.3281 23.7832 70.8658 23.7832C71.5357 23.7832 72.0325 23.4961 72.3561 22.9219V19.668C72.0416 19.1074 71.5494 18.8271 70.8795 18.8271C70.3326 18.8271 69.9065 19.0436 69.6012 19.4766C69.3004 19.9095 69.15 20.5475 69.15 21.3906ZM78.0668 18.4102C78.6091 17.7812 79.295 17.4668 80.1244 17.4668C81.7012 17.4668 82.501 18.3669 82.5238 20.167V25H80.8627V20.2285C80.8627 19.7181 80.751 19.3581 80.5277 19.1484C80.309 18.9342 79.9854 18.8271 79.557 18.8271C78.8917 18.8271 78.3949 19.1234 78.0668 19.7158V25H76.4057V14.5H78.0668V18.4102ZM86.676 25H85.0148V14.5H86.676V25ZM90.958 25H89.2969V17.6035H90.958V25ZM89.1943 15.6826C89.1943 15.4274 89.2741 15.2155 89.4336 15.0469C89.5977 14.8783 89.8301 14.7939 90.1309 14.7939C90.4316 14.7939 90.6641 14.8783 90.8281 15.0469C90.9922 15.2155 91.0742 15.4274 91.0742 15.6826C91.0742 15.9333 90.9922 16.1429 90.8281 16.3115C90.6641 16.4756 90.4316 16.5576 90.1309 16.5576C89.8301 16.5576 89.5977 16.4756 89.4336 16.3115C89.2741 16.1429 89.1943 15.9333 89.1943 15.6826ZM93.1824 21.2471C93.1824 20.0986 93.4513 19.1826 93.9891 18.499C94.5314 17.8109 95.2492 17.4668 96.1424 17.4668C96.9855 17.4668 97.6486 17.7607 98.1316 18.3486L98.2068 17.6035H99.7039V24.7744C99.7039 25.7451 99.4008 26.5107 98.7947 27.0713C98.1932 27.6318 97.3797 27.9121 96.3543 27.9121C95.812 27.9121 95.2811 27.7982 94.7615 27.5703C94.2466 27.347 93.8546 27.0531 93.5857 26.6885L94.3719 25.6904C94.8823 26.2965 95.5112 26.5996 96.2586 26.5996C96.81 26.5996 97.2452 26.4492 97.5643 26.1484C97.8833 25.8522 98.0428 25.4147 98.0428 24.8359V24.3369C97.5643 24.8701 96.9262 25.1367 96.1287 25.1367C95.2628 25.1367 94.5542 24.7926 94.0027 24.1045C93.4559 23.4163 93.1824 22.4639 93.1824 21.2471ZM94.8367 21.3906C94.8367 22.1335 94.9871 22.7191 95.2879 23.1475C95.5932 23.5713 96.0148 23.7832 96.5525 23.7832C97.2225 23.7832 97.7192 23.4961 98.0428 22.9219V19.668C97.7283 19.1074 97.2361 18.8271 96.5662 18.8271C96.0193 18.8271 95.5932 19.0436 95.2879 19.4766C94.9871 19.9095 94.8367 20.5475 94.8367 21.3906ZM103.754 18.4102C104.296 17.7812 104.982 17.4668 105.811 17.4668C107.388 17.4668 108.188 18.3669 108.211 20.167V25H106.549V20.2285C106.549 19.7181 106.438 19.3581 106.214 19.1484C105.996 18.9342 105.672 18.8271 105.244 18.8271C104.578 18.8271 104.082 19.1234 103.754 19.7158V25H102.092V14.5H103.754V18.4102ZM112.677 15.8057V17.6035H113.983V18.834H112.677V22.9629C112.677 23.2454 112.732 23.4505 112.841 23.5781C112.955 23.7012 113.156 23.7627 113.443 23.7627C113.634 23.7627 113.828 23.7399 114.024 23.6943V24.9795C113.646 25.0843 113.281 25.1367 112.93 25.1367C111.654 25.1367 111.016 24.4326 111.016 23.0244V18.834H109.799V17.6035H111.016V15.8057H112.677Z"
            fill="#8A94A6" />
    </g>
</svg>
    