<svg width="100" height="29" viewBox="0 0 100 29" fill="none" xmlns="http://www.w3.org/2000/svg">
    <path
        d="M21.959 16.2189V23.5979H17.681V16.7129C17.681 14.9829 17.062 13.8029 15.514 13.8029C14.332 13.8029 13.628 14.5989 13.319 15.3679C13.206 15.6429 13.177 16.0259 13.177 16.4109V23.5979H8.897C8.897 23.5979 8.955 11.9379 8.897 10.7289H13.177V12.5529L13.149 12.5949H13.177V12.5529C13.745 11.6779 14.76 10.4269 17.033 10.4269C19.848 10.4269 21.959 12.2669 21.959 16.2189ZM4.421 4.52588C2.958 4.52588 2 5.48588 2 6.74888C2 7.98388 2.93 8.97288 4.365 8.97288H4.393C5.886 8.97288 6.813 7.98388 6.813 6.74888C6.787 5.48588 5.887 4.52588 4.422 4.52588H4.421ZM2.254 23.5979H6.532V10.7289H2.254V23.5979Z"
        fill="#0F172A" />
    <path
        d="M41.2461 19.6201V21H34.8477V19.6201H41.2461ZM35.1816 8.20312V21H33.4854V8.20312H35.1816ZM44.709 11.4902V21H43.0742V11.4902H44.709ZM42.9512 8.96777C42.9512 8.7041 43.0303 8.48145 43.1885 8.2998C43.3525 8.11816 43.5928 8.02734 43.9092 8.02734C44.2197 8.02734 44.457 8.11816 44.6211 8.2998C44.791 8.48145 44.876 8.7041 44.876 8.96777C44.876 9.21973 44.791 9.43652 44.6211 9.61816C44.457 9.79395 44.2197 9.88184 43.9092 9.88184C43.5928 9.88184 43.3525 9.79395 43.1885 9.61816C43.0303 9.43652 42.9512 9.21973 42.9512 8.96777ZM48.9453 13.5205V21H47.3193V11.4902H48.8574L48.9453 13.5205ZM48.5586 15.8848L47.8818 15.8584C47.8877 15.208 47.9844 14.6074 48.1719 14.0566C48.3594 13.5 48.623 13.0166 48.9629 12.6064C49.3027 12.1963 49.707 11.8799 50.1758 11.6572C50.6504 11.4287 51.1748 11.3145 51.749 11.3145C52.2178 11.3145 52.6396 11.3789 53.0146 11.5078C53.3896 11.6309 53.709 11.8301 53.9727 12.1055C54.2422 12.3809 54.4473 12.7383 54.5879 13.1777C54.7285 13.6113 54.7988 14.1416 54.7988 14.7686V21H53.1641V14.751C53.1641 14.2529 53.0908 13.8545 52.9443 13.5557C52.7979 13.251 52.584 13.0312 52.3027 12.8965C52.0215 12.7559 51.6758 12.6855 51.2656 12.6855C50.8613 12.6855 50.4922 12.7705 50.1582 12.9404C49.8301 13.1104 49.5459 13.3447 49.3057 13.6436C49.0713 13.9424 48.8867 14.2852 48.752 14.6719C48.623 15.0527 48.5586 15.457 48.5586 15.8848ZM58.9033 7.5V21H57.2686V7.5H58.9033ZM64.7129 11.4902L60.5645 15.9287L58.2441 18.3369L58.1123 16.6055L59.7734 14.6191L62.7266 11.4902H64.7129ZM63.2275 21L59.835 16.4648L60.6787 15.0146L65.1436 21H63.2275ZM70.1621 21.1758C69.5 21.1758 68.8994 21.0645 68.3604 20.8418C67.8271 20.6133 67.3672 20.2939 66.9805 19.8838C66.5996 19.4736 66.3066 18.9873 66.1016 18.4248C65.8965 17.8623 65.7939 17.2471 65.7939 16.5791V16.21C65.7939 15.4365 65.9082 14.748 66.1367 14.1445C66.3652 13.5352 66.6758 13.0195 67.0684 12.5977C67.4609 12.1758 67.9062 11.8564 68.4043 11.6396C68.9023 11.4229 69.418 11.3145 69.9512 11.3145C70.6309 11.3145 71.2168 11.4316 71.709 11.666C72.207 11.9004 72.6143 12.2285 72.9307 12.6504C73.2471 13.0664 73.4814 13.5586 73.6338 14.127C73.7861 14.6895 73.8623 15.3047 73.8623 15.9727V16.7021H66.7607V15.375H72.2363V15.252C72.2129 14.8301 72.125 14.4199 71.9727 14.0215C71.8262 13.623 71.5918 13.2949 71.2695 13.0371C70.9473 12.7793 70.5078 12.6504 69.9512 12.6504C69.582 12.6504 69.2422 12.7295 68.9316 12.8877C68.6211 13.04 68.3545 13.2686 68.1318 13.5732C67.9092 13.8779 67.7363 14.25 67.6133 14.6895C67.4902 15.1289 67.4287 15.6357 67.4287 16.21V16.5791C67.4287 17.0303 67.4902 17.4551 67.6133 17.8535C67.7422 18.2461 67.9268 18.5918 68.167 18.8906C68.4131 19.1895 68.709 19.4238 69.0547 19.5938C69.4062 19.7637 69.8047 19.8486 70.25 19.8486C70.8242 19.8486 71.3105 19.7314 71.709 19.4971C72.1074 19.2627 72.4561 18.9492 72.7549 18.5566L73.7393 19.3389C73.5342 19.6494 73.2734 19.9453 72.957 20.2266C72.6406 20.5078 72.251 20.7363 71.7881 20.9121C71.3311 21.0879 70.7891 21.1758 70.1621 21.1758ZM81.7549 19.1543V7.5H83.3896V21H81.8955L81.7549 19.1543ZM75.3564 16.3506V16.166C75.3564 15.4395 75.4443 14.7803 75.6201 14.1885C75.8018 13.5908 76.0566 13.0781 76.3848 12.6504C76.7188 12.2227 77.1143 11.8945 77.5713 11.666C78.0342 11.4316 78.5498 11.3145 79.1182 11.3145C79.7158 11.3145 80.2373 11.4199 80.6826 11.6309C81.1338 11.8359 81.5146 12.1377 81.8252 12.5361C82.1416 12.9287 82.3906 13.4033 82.5723 13.96C82.7539 14.5166 82.8799 15.1465 82.9502 15.8496V16.6582C82.8857 17.3555 82.7598 17.9824 82.5723 18.5391C82.3906 19.0957 82.1416 19.5703 81.8252 19.9629C81.5146 20.3555 81.1338 20.6572 80.6826 20.8682C80.2314 21.0732 79.7041 21.1758 79.1006 21.1758C78.5439 21.1758 78.0342 21.0557 77.5713 20.8154C77.1143 20.5752 76.7188 20.2383 76.3848 19.8047C76.0566 19.3711 75.8018 18.8613 75.6201 18.2754C75.4443 17.6836 75.3564 17.042 75.3564 16.3506ZM76.9912 16.166V16.3506C76.9912 16.8252 77.0381 17.2705 77.1318 17.6865C77.2314 18.1025 77.3838 18.4688 77.5889 18.7852C77.7939 19.1016 78.0547 19.3506 78.3711 19.5322C78.6875 19.708 79.0654 19.7959 79.5049 19.7959C80.0439 19.7959 80.4863 19.6816 80.832 19.4531C81.1836 19.2246 81.4648 18.9229 81.6758 18.5479C81.8867 18.1729 82.0508 17.7656 82.168 17.3262V15.208C82.0977 14.8857 81.9951 14.5752 81.8604 14.2764C81.7314 13.9717 81.5615 13.7021 81.3506 13.4678C81.1455 13.2275 80.8906 13.0371 80.5859 12.8965C80.2871 12.7559 79.9326 12.6855 79.5225 12.6855C79.0771 12.6855 78.6934 12.7793 78.3711 12.9668C78.0547 13.1484 77.7939 13.4004 77.5889 13.7227C77.3838 14.0391 77.2314 14.4082 77.1318 14.8301C77.0381 15.2461 76.9912 15.6914 76.9912 16.166ZM87.9863 8.20312V21H86.29V8.20312H87.9863ZM92.4512 13.5205V21H90.8252V11.4902H92.3633L92.4512 13.5205ZM92.0645 15.8848L91.3877 15.8584C91.3936 15.208 91.4902 14.6074 91.6777 14.0566C91.8652 13.5 92.1289 13.0166 92.4688 12.6064C92.8086 12.1963 93.2129 11.8799 93.6816 11.6572C94.1562 11.4287 94.6807 11.3145 95.2549 11.3145C95.7236 11.3145 96.1455 11.3789 96.5205 11.5078C96.8955 11.6309 97.2148 11.8301 97.4785 12.1055C97.748 12.3809 97.9531 12.7383 98.0938 13.1777C98.2344 13.6113 98.3047 14.1416 98.3047 14.7686V21H96.6699V14.751C96.6699 14.2529 96.5967 13.8545 96.4502 13.5557C96.3037 13.251 96.0898 13.0312 95.8086 12.8965C95.5273 12.7559 95.1816 12.6855 94.7715 12.6855C94.3672 12.6855 93.998 12.7705 93.6641 12.9404C93.3359 13.1104 93.0518 13.3447 92.8115 13.6436C92.5771 13.9424 92.3926 14.2852 92.2578 14.6719C92.1289 15.0527 92.0645 15.457 92.0645 15.8848Z"
        fill="#0F172A" />
    <path d="M32 22.7578H99.5264V23.6367H32V22.7578Z" fill="#0F172A" />
    <a href="https://www.linkedin.com/in/bogdanhutuleac/">
        <rect fill="black" fill-opacity="0" y="3.95312" width="67.5264" height="21.0938" />
    </a>
</svg>
    