<svg width="111" height="40" viewBox="0 0 111 40" fill="none" xmlns="http://www.w3.org/2000/svg">
    <g opacity="0.5">
    <rect width="111" height="40" rx="4" fill="#EAF0F5"/>
    <path d="M31 10C30.996 10 30.991 10 30.986 10C30.434 10 29.986 10.448 29.986 11C29.986 11.552 30.434 12 30.986 12C30.991 12 30.996 12 31.001 12H34.586L29.293 17.293C28.311 18.236 29.765 19.689 30.707 18.707L36 13.414V17C36 17.004 36 17.009 36 17.014C36 17.566 36.448 18.014 37 18.014C37.552 18.014 38 17.566 38 17.014C38 17.009 38 17.004 38 16.999V17V11C38 10.448 37.552 10 37 10H31ZM25.98 20.99C25.72 20.998 25.474 21.106 25.293 21.293L20 26.586V23C20 22.996 20 22.991 20 22.986C20 22.434 19.552 21.986 19 21.986C18.995 21.986 18.989 21.986 18.984 21.986H18.985C18.439 21.995 18.001 22.439 18.001 22.986C18.001 22.991 18.001 22.996 18.001 23V22.999V28.999C18.001 29.551 18.449 29.999 19.001 29.999H25.001C25.005 29.999 25.01 29.999 25.015 29.999C25.567 29.999 26.015 29.551 26.015 28.999C26.015 28.447 25.567 27.999 25.015 27.999C25.01 27.999 25.005 27.999 25 27.999H21.415L26.708 22.706C27.362 22.07 26.893 20.962 25.981 20.989L25.98 20.99Z" fill="#4E5D78"/>
    <path d="M60.9551 20.2832C60.9551 21.2585 60.7865 22.1152 60.4492 22.8535C60.112 23.5872 59.6289 24.1523 59 24.5488C58.3757 24.9408 57.6556 25.1367 56.8398 25.1367C56.0332 25.1367 55.3132 24.9408 54.6797 24.5488C54.0508 24.1523 53.5632 23.5895 53.2168 22.8604C52.875 22.1312 52.7018 21.2904 52.6973 20.3379V19.7773C52.6973 18.8066 52.8682 17.9499 53.21 17.207C53.5563 16.4642 54.0417 15.8968 54.666 15.5049C55.2949 15.1084 56.015 14.9102 56.8262 14.9102C57.6374 14.9102 58.3551 15.1061 58.9795 15.498C59.6084 15.8854 60.0938 16.446 60.4355 17.1797C60.7773 17.9089 60.9505 18.7588 60.9551 19.7295V20.2832ZM59.2256 19.7637C59.2256 18.6608 59.016 17.8154 58.5967 17.2275C58.182 16.6396 57.5918 16.3457 56.8262 16.3457C56.0788 16.3457 55.4932 16.6396 55.0693 17.2275C54.6501 17.8109 54.4359 18.638 54.4268 19.709V20.2832C54.4268 21.377 54.6387 22.2223 55.0625 22.8193C55.4909 23.4163 56.0833 23.7148 56.8398 23.7148C57.6055 23.7148 58.1934 23.4232 58.6035 22.8398C59.0182 22.2565 59.2256 21.4043 59.2256 20.2832V19.7637ZM69.6941 21.377C69.6941 22.5208 69.4344 23.4346 68.9148 24.1182C68.3953 24.7972 67.698 25.1367 66.823 25.1367C66.0118 25.1367 65.3624 24.8701 64.8748 24.3369V27.8438H63.2137V17.6035H64.7449L64.8133 18.3555C65.3009 17.763 65.964 17.4668 66.8025 17.4668C67.7049 17.4668 68.4113 17.804 68.9217 18.4785C69.4367 19.1484 69.6941 20.0804 69.6941 21.2744V21.377ZM68.0398 21.2334C68.0398 20.4951 67.8917 19.9095 67.5955 19.4766C67.3038 19.0436 66.8846 18.8271 66.3377 18.8271C65.6587 18.8271 65.171 19.1074 64.8748 19.668V22.9492C65.1756 23.5234 65.6678 23.8105 66.3514 23.8105C66.88 23.8105 67.2924 23.5986 67.5887 23.1748C67.8895 22.7464 68.0398 22.0993 68.0398 21.2334ZM75.0631 25.1367C74.0104 25.1367 73.1559 24.8063 72.4996 24.1455C71.8479 23.4801 71.5221 22.596 71.5221 21.4932V21.2881C71.5221 20.5498 71.6633 19.8913 71.9459 19.3125C72.233 18.7292 72.634 18.2757 73.149 17.9521C73.664 17.6286 74.2382 17.4668 74.8717 17.4668C75.8788 17.4668 76.6559 17.7881 77.2027 18.4307C77.7542 19.0732 78.0299 19.9824 78.0299 21.1582V21.8281H73.1969C73.247 22.4388 73.4498 22.9219 73.8053 23.2773C74.1653 23.6328 74.6165 23.8105 75.1588 23.8105C75.9199 23.8105 76.5396 23.5029 77.0182 22.8877L77.9137 23.7422C77.6174 24.1842 77.221 24.5283 76.7242 24.7744C76.232 25.016 75.6783 25.1367 75.0631 25.1367ZM74.8648 18.7998C74.4091 18.7998 74.04 18.9593 73.7574 19.2783C73.4794 19.5973 73.3017 20.0417 73.2242 20.6113H76.3893V20.4883C76.3528 19.9323 76.2047 19.513 75.9449 19.2305C75.6852 18.9434 75.3251 18.7998 74.8648 18.7998ZM81.5668 17.6035L81.6146 18.458C82.1615 17.7972 82.8793 17.4668 83.768 17.4668C85.3083 17.4668 86.0922 18.3486 86.1195 20.1123V25H84.4584V20.208C84.4584 19.7386 84.3559 19.3923 84.1508 19.1689C83.9503 18.9411 83.6199 18.8271 83.1596 18.8271C82.4896 18.8271 81.9906 19.1302 81.6625 19.7363V25H80.0014V17.6035H81.5668Z" fill="#04142F"/>
    </g>
    </svg>
    