<svg width="119" height="40" viewBox="0 0 119 40" fill="none" xmlns="http://www.w3.org/2000/svg">
    <g opacity="0.5">
        <rect x="0.5" y="0.5" width="118" height="39" rx="3.5" stroke="#C6CDD2" />
        <path
            d="M28.438 9.01001C28.09 8.98501 27.741 8.99101 27.397 9.02601C24.645 9.30401 21.997 11.505 22.001 15.003V18.001H21.001C19.356 18.001 18.001 19.356 18.001 21.001V28.001C18.001 29.646 19.356 31.001 21.001 31.001H35.001C36.646 31.001 38.001 29.646 38.001 28.001V21.001C38.001 19.356 36.646 18.001 35.001 18.001H24.001V14.999C23.998 12.463 25.699 11.208 27.599 11.017C29.499 10.826 31.417 11.716 31.921 14.201C32.187 15.507 34.148 15.109 33.882 13.803C33.273 10.804 30.873 9.18401 28.439 9.01201L28.438 9.01001ZM21 20H35C35.571 20 36 20.429 36 21V28C36 28.571 35.571 29 35 29H21C20.429 29 20 28.571 20 28V21C20 20.429 20.429 20 21 20Z"
            fill="#8A94A6" />
        <path
            d="M54.7412 21.3018V25H53.0117V15.0469H56.8193C57.9313 15.0469 58.8132 15.3363 59.4648 15.915C60.1211 16.4938 60.4492 17.2594 60.4492 18.2119C60.4492 19.1872 60.1279 19.946 59.4854 20.4883C58.8473 21.0306 57.9518 21.3018 56.7988 21.3018H54.7412ZM54.7412 19.9141H56.8193C57.4346 19.9141 57.904 19.7705 58.2275 19.4834C58.5511 19.1917 58.7129 18.7725 58.7129 18.2256C58.7129 17.6878 58.5488 17.2594 58.2207 16.9404C57.8926 16.6169 57.4414 16.4505 56.8672 16.4414H54.7412V19.9141ZM66.9871 24.2754C66.4995 24.8496 65.8068 25.1367 64.909 25.1367C64.1069 25.1367 63.4985 24.902 63.0838 24.4326C62.6736 23.9632 62.4686 23.2842 62.4686 22.3955V17.6035H64.1297V22.375C64.1297 23.3138 64.5193 23.7832 65.2986 23.7832C66.1053 23.7832 66.6499 23.4938 66.9324 22.915V17.6035H68.5936V25H67.0281L66.9871 24.2754ZM77.4762 21.377C77.4762 22.5254 77.2187 23.4391 76.7037 24.1182C76.1933 24.7972 75.4892 25.1367 74.5914 25.1367C73.7255 25.1367 73.051 24.8245 72.568 24.2002L72.4859 25H70.982V14.5H72.6432V18.3145C73.1217 17.7493 73.7665 17.4668 74.5777 17.4668C75.4801 17.4668 76.1887 17.8018 76.7037 18.4717C77.2187 19.1416 77.4762 20.0781 77.4762 21.2812V21.377ZM75.815 21.2334C75.815 20.4313 75.6738 19.8298 75.3912 19.4287C75.1087 19.0277 74.6985 18.8271 74.1607 18.8271C73.4407 18.8271 72.9348 19.1416 72.6432 19.7705V22.8193C72.9394 23.4619 73.4498 23.7832 74.1744 23.7832C74.6939 23.7832 75.095 23.5895 75.3775 23.2021C75.6601 22.8148 75.8059 22.2292 75.815 21.4453V21.2334ZM81.3412 25H79.6801V14.5H81.3412V25ZM85.6232 25H83.9621V17.6035H85.6232V25ZM83.8596 15.6826C83.8596 15.4274 83.9393 15.2155 84.0988 15.0469C84.2629 14.8783 84.4953 14.7939 84.7961 14.7939C85.0969 14.7939 85.3293 14.8783 85.4934 15.0469C85.6574 15.2155 85.7395 15.4274 85.7395 15.6826C85.7395 15.9333 85.6574 16.1429 85.4934 16.3115C85.3293 16.4756 85.0969 16.5576 84.7961 16.5576C84.4953 16.5576 84.2629 16.4756 84.0988 16.3115C83.9393 16.1429 83.8596 15.9333 83.8596 15.6826ZM91.1768 23.8105C91.5915 23.8105 91.9355 23.6898 92.209 23.4482C92.4824 23.2067 92.6283 22.9082 92.6465 22.5527H94.2119C94.1937 23.013 94.0501 23.4437 93.7812 23.8447C93.5124 24.2412 93.1478 24.5557 92.6875 24.7881C92.2272 25.0205 91.7305 25.1367 91.1973 25.1367C90.1628 25.1367 89.3424 24.8018 88.7363 24.1318C88.1302 23.4619 87.8271 22.5368 87.8271 21.3564V21.1855C87.8271 20.0599 88.1279 19.1598 88.7295 18.4854C89.3311 17.8063 90.1514 17.4668 91.1904 17.4668C92.07 17.4668 92.7855 17.7243 93.3369 18.2393C93.8929 18.7497 94.1846 19.4219 94.2119 20.2559H92.6465C92.6283 19.832 92.4824 19.4834 92.209 19.21C91.9401 18.9365 91.596 18.7998 91.1768 18.7998C90.639 18.7998 90.2243 18.9958 89.9326 19.3877C89.641 19.7751 89.4928 20.3652 89.4883 21.1582V21.4248C89.4883 22.2269 89.6318 22.8262 89.9189 23.2227C90.2106 23.6146 90.6299 23.8105 91.1768 23.8105Z"
            fill="#8A94A6" />
    </g>
</svg>
    