<svg width="117" height="40" viewBox="0 0 117 40" fill="none" xmlns="http://www.w3.org/2000/svg">
    <g opacity="0.5">
    <rect x="0.5" y="0.5" width="116" height="39" rx="3.5" stroke="#C6CDD2"/>
    <path d="M23.984 8.98601C23.438 8.99501 23 9.43901 23 9.98601C23 9.99101 23 9.99601 23 10V9.99901V10.999H21C19.355 10.999 18 12.354 18 13.999V27.999C18 29.644 19.355 30.999 21 30.999H35C36.645 30.999 38 29.644 38 27.999V13.999C38 12.354 36.645 10.999 35 10.999H33V9.99901C33 9.99501 33 9.99001 33 9.98501C33 9.43301 32.552 8.98501 32 8.98501C31.995 8.98501 31.989 8.98501 31.984 8.98501H31.985C31.439 8.99401 31.001 9.43801 31.001 9.98501C31.001 9.99001 31.001 9.99501 31.001 9.99901V9.99801V10.998H25.001V9.99801C25.001 9.99401 25.001 9.98901 25.001 9.98401C25.001 9.43201 24.553 8.98401 24.001 8.98401C23.996 8.98401 23.99 8.98401 23.985 8.98401H23.986L23.984 8.98601ZM21 13H23V14C23 14.004 23 14.009 23 14.014C23 14.566 23.448 15.014 24 15.014C24.552 15.014 25 14.566 25 14.014C25 14.009 25 14.004 25 13.999V14V13H31V14C31 14.004 31 14.009 31 14.014C31 14.566 31.448 15.014 32 15.014C32.552 15.014 33 14.566 33 14.014C33 14.009 33 14.004 33 13.999V14V13H35C35.571 13 36 13.429 36 14V17H20V14C20 13.429 20.429 13 21 13ZM20 19H36V28C36 28.571 35.571 29 35 29H21C20.429 29 20 28.571 20 28V19Z" fill="#8A94A6"/>
    <path d="M60.2031 16.4414H57.0996V25H55.3838V16.4414H52.3076V15.0469H60.2031V16.4414ZM60.3221 21.2334C60.3221 20.5088 60.4656 19.8571 60.7527 19.2783C61.0398 18.695 61.4432 18.2484 61.9627 17.9385C62.4822 17.624 63.0792 17.4668 63.7537 17.4668C64.7518 17.4668 65.5607 17.7881 66.1805 18.4307C66.8048 19.0732 67.1421 19.9255 67.1922 20.9873L67.199 21.377C67.199 22.1061 67.0577 22.7578 66.7752 23.332C66.4972 23.9062 66.0962 24.3506 65.5721 24.665C65.0525 24.9795 64.451 25.1367 63.7674 25.1367C62.7238 25.1367 61.8875 24.7904 61.2586 24.0977C60.6342 23.4004 60.3221 22.473 60.3221 21.3154V21.2334ZM61.9832 21.377C61.9832 22.138 62.1404 22.735 62.4549 23.168C62.7693 23.5964 63.2068 23.8105 63.7674 23.8105C64.3279 23.8105 64.7632 23.5918 65.073 23.1543C65.3875 22.7168 65.5447 22.0765 65.5447 21.2334C65.5447 20.486 65.3829 19.8936 65.0594 19.4561C64.7404 19.0186 64.3051 18.7998 63.7537 18.7998C63.2114 18.7998 62.7807 19.0163 62.4617 19.4492C62.1427 19.8776 61.9832 20.5202 61.9832 21.377ZM68.9928 21.2471C68.9928 20.1077 69.2571 19.194 69.7857 18.5059C70.3144 17.8132 71.023 17.4668 71.9117 17.4668C72.6956 17.4668 73.329 17.7402 73.8121 18.2871V14.5H75.4732V25H73.9693L73.8873 24.2344C73.3906 24.8359 72.7275 25.1367 71.898 25.1367C71.0322 25.1367 70.3303 24.7881 69.7926 24.0908C69.2594 23.3936 68.9928 22.4456 68.9928 21.2471ZM70.6539 21.3906C70.6539 22.1426 70.7975 22.7305 71.0846 23.1543C71.3762 23.5736 71.7887 23.7832 72.3219 23.7832C73.0009 23.7832 73.4977 23.4801 73.8121 22.874V19.7158C73.5068 19.1234 73.0146 18.8271 72.3355 18.8271C71.7978 18.8271 71.3831 19.0413 71.0914 19.4697C70.7997 19.8936 70.6539 20.5339 70.6539 21.3906ZM82.3256 25C82.2527 24.8587 82.1889 24.6286 82.1342 24.3096C81.6055 24.861 80.9584 25.1367 80.1928 25.1367C79.4499 25.1367 78.8438 24.9248 78.3744 24.501C77.905 24.0771 77.6703 23.5531 77.6703 22.9287C77.6703 22.1403 77.962 21.5365 78.5453 21.1172C79.1332 20.6934 79.9717 20.4814 81.0609 20.4814H82.0795V19.9961C82.0795 19.6133 81.9724 19.3079 81.7582 19.0801C81.544 18.8477 81.2182 18.7314 80.7807 18.7314C80.4024 18.7314 80.0925 18.8271 79.851 19.0186C79.6094 19.2054 79.4887 19.4447 79.4887 19.7363H77.8275C77.8275 19.3307 77.962 18.9525 78.2309 18.6016C78.4997 18.2461 78.8643 17.9681 79.3246 17.7676C79.7895 17.5671 80.3067 17.4668 80.8764 17.4668C81.7423 17.4668 82.4327 17.6855 82.9477 18.123C83.4626 18.556 83.727 19.1667 83.7406 19.9551V23.291C83.7406 23.9564 83.834 24.4873 84.0209 24.8838V25H82.3256ZM80.5004 23.8037C80.8285 23.8037 81.1361 23.724 81.4232 23.5645C81.7149 23.4049 81.9337 23.1908 82.0795 22.9219V21.5273H81.184C80.5688 21.5273 80.1062 21.6344 79.7963 21.8486C79.4864 22.0628 79.3314 22.3659 79.3314 22.7578C79.3314 23.0768 79.4363 23.332 79.6459 23.5234C79.8601 23.7103 80.1449 23.8037 80.5004 23.8037ZM88.6584 22.6211L90.1623 17.6035H91.9328L88.9934 26.1211C88.5422 27.3652 87.7766 27.9873 86.6965 27.9873C86.4549 27.9873 86.1883 27.9463 85.8967 27.8643V26.5791L86.2111 26.5996C86.6304 26.5996 86.9449 26.5221 87.1545 26.3672C87.3687 26.2168 87.5373 25.9616 87.6604 25.6016L87.8996 24.9658L85.302 17.6035H87.093L88.6584 22.6211Z" fill="#8A94A6"/>
    </g>
    </svg>
    